<?xml version="1.0" encoding="UTF-8" standalone="no"?>
<!DOCTYPE svg PUBLIC "-//W3C//DTD SVG 1.1//EN"
 "http://www.w3.org/Graphics/SVG/1.1/DTD/svg11.dtd">
<!-- Generated by graphviz version 2.49.3 (20211023.0002)
 -->
<!-- Title: Tree Pages: 1 -->
<svg width="2102pt" height="402pt"
 viewBox="0.00 0.00 2102.00 402.00" xmlns="http://www.w3.org/2000/svg" xmlns:xlink="http://www.w3.org/1999/xlink">
<g id="graph0" class="graph" transform="scale(1 1) rotate(0) translate(4 398)">
<title>Tree</title>
<polygon fill="white" stroke="transparent" points="-4,4 -4,-398 2098,-398 2098,4 -4,4"/>
<!-- 0 -->
<g id="node1" class="node">
<title>0</title>
<path fill="#f8dbc7" stroke="black" d="M1106.5,-394C1106.5,-394 1002.5,-394 1002.5,-394 996.5,-394 990.5,-388 990.5,-382 990.5,-382 990.5,-353 990.5,-353 990.5,-347 996.5,-341 1002.5,-341 1002.5,-341 1106.5,-341 1106.5,-341 1112.5,-341 1118.5,-347 1118.5,-353 1118.5,-353 1118.5,-382 1118.5,-382 1118.5,-388 1112.5,-394 1106.5,-394"/>
<text text-anchor="middle" x="1054.5" y="-378.8" font-family="Helvetica,sans-Serif" font-size="14.00">MedInc &lt;= 5.029</text>
<text text-anchor="middle" x="1054.5" y="-363.8" font-family="Helvetica,sans-Serif" font-size="14.00">samples = 15480</text>
<text text-anchor="middle" x="1054.5" y="-348.8" font-family="Helvetica,sans-Serif" font-size="14.00">value = 2.074</text>
</g>
<!-- 1 -->
<g id="node2" class="node">
<title>1</title>
<path fill="#fae6d8" stroke="black" d="M850.5,-305C850.5,-305 746.5,-305 746.5,-305 740.5,-305 734.5,-299 734.5,-293 734.5,-293 734.5,-264 734.5,-264 734.5,-258 740.5,-252 746.5,-252 746.5,-252 850.5,-252 850.5,-252 856.5,-252 862.5,-258 862.5,-264 862.5,-264 862.5,-293 862.5,-293 862.5,-299 856.5,-305 850.5,-305"/>
<text text-anchor="middle" x="798.5" y="-289.8" font-family="Helvetica,sans-Serif" font-size="14.00">MedInc &lt;= 3.074</text>
<text text-anchor="middle" x="798.5" y="-274.8" font-family="Helvetica,sans-Serif" font-size="14.00">samples = 12163</text>
<text text-anchor="middle" x="798.5" y="-259.8" font-family="Helvetica,sans-Serif" font-size="14.00">value = 1.736</text>
</g>
<!-- 0&#45;&gt;1 -->
<g id="edge1" class="edge">
<title>0&#45;&gt;1</title>
<path fill="none" stroke="black" d="M990.23,-344.66C954.47,-332.51 909.81,-317.33 872.58,-304.68"/>
<polygon fill="black" stroke="black" points="873.39,-301.25 862.8,-301.35 871.14,-307.88 873.39,-301.25"/>
<text text-anchor="middle" x="873.85" y="-320.08" font-family="Helvetica,sans-Serif" font-size="14.00">True</text>
</g>
<!-- 16 -->
<g id="node17" class="node">
<title>16</title>
<path fill="#efb387" stroke="black" d="M1376,-305C1376,-305 1281,-305 1281,-305 1275,-305 1269,-299 1269,-293 1269,-293 1269,-264 1269,-264 1269,-258 1275,-252 1281,-252 1281,-252 1376,-252 1376,-252 1382,-252 1388,-258 1388,-264 1388,-264 1388,-293 1388,-293 1388,-299 1382,-305 1376,-305"/>
<text text-anchor="middle" x="1328.5" y="-289.8" font-family="Helvetica,sans-Serif" font-size="14.00">MedInc &lt;= 6.82</text>
<text text-anchor="middle" x="1328.5" y="-274.8" font-family="Helvetica,sans-Serif" font-size="14.00">samples = 3317</text>
<text text-anchor="middle" x="1328.5" y="-259.8" font-family="Helvetica,sans-Serif" font-size="14.00">value = 3.316</text>
</g>
<!-- 0&#45;&gt;16 -->
<g id="edge16" class="edge">
<title>0&#45;&gt;16</title>
<path fill="none" stroke="black" d="M1118.74,-346.1C1160.95,-332.7 1216.13,-315.18 1259.3,-301.47"/>
<polygon fill="black" stroke="black" points="1260.41,-304.79 1268.88,-298.43 1258.29,-298.12 1260.41,-304.79"/>
<text text-anchor="middle" x="1257.38" y="-316.93" font-family="Helvetica,sans-Serif" font-size="14.00">False</text>
</g>
<!-- 2 -->
<g id="node3" class="node">
<title>2</title>
<path fill="#fcf2eb" stroke="black" d="M468,-216C468,-216 343,-216 343,-216 337,-216 331,-210 331,-204 331,-204 331,-175 331,-175 331,-169 337,-163 343,-163 343,-163 468,-163 468,-163 474,-163 480,-169 480,-175 480,-175 480,-204 480,-204 480,-210 474,-216 468,-216"/>
<text text-anchor="middle" x="405.5" y="-200.8" font-family="Helvetica,sans-Serif" font-size="14.00">AveRooms &lt;= 4.314</text>
<text text-anchor="middle" x="405.5" y="-185.8" font-family="Helvetica,sans-Serif" font-size="14.00">samples = 5869</text>
<text text-anchor="middle" x="405.5" y="-170.8" font-family="Helvetica,sans-Serif" font-size="14.00">value = 1.352</text>
</g>
<!-- 1&#45;&gt;2 -->
<g id="edge2" class="edge">
<title>1&#45;&gt;2</title>
<path fill="none" stroke="black" d="M734.48,-263.33C668.01,-248.61 563.67,-225.52 490.36,-209.29"/>
<polygon fill="black" stroke="black" points="490.75,-205.79 480.23,-207.04 489.24,-212.62 490.75,-205.79"/>
</g>
<!-- 9 -->
<g id="node10" class="node">
<title>9</title>
<path fill="#f7dac6" stroke="black" d="M858.5,-216C858.5,-216 738.5,-216 738.5,-216 732.5,-216 726.5,-210 726.5,-204 726.5,-204 726.5,-175 726.5,-175 726.5,-169 732.5,-163 738.5,-163 738.5,-163 858.5,-163 858.5,-163 864.5,-163 870.5,-169 870.5,-175 870.5,-175 870.5,-204 870.5,-204 870.5,-210 864.5,-216 858.5,-216"/>
<text text-anchor="middle" x="798.5" y="-200.8" font-family="Helvetica,sans-Serif" font-size="14.00">AveOccup &lt;= 2.344</text>
<text text-anchor="middle" x="798.5" y="-185.8" font-family="Helvetica,sans-Serif" font-size="14.00">samples = 6294</text>
<text text-anchor="middle" x="798.5" y="-170.8" font-family="Helvetica,sans-Serif" font-size="14.00">value = 2.093</text>
</g>
<!-- 1&#45;&gt;9 -->
<g id="edge9" class="edge">
<title>1&#45;&gt;9</title>
<path fill="none" stroke="black" d="M798.5,-251.87C798.5,-243.89 798.5,-234.93 798.5,-226.38"/>
<polygon fill="black" stroke="black" points="802,-226.25 798.5,-216.25 795,-226.25 802,-226.25"/>
</g>
<!-- 3 -->
<g id="node4" class="node">
<title>3</title>
<path fill="#fbeade" stroke="black" d="M247,-127C247,-127 146,-127 146,-127 140,-127 134,-121 134,-115 134,-115 134,-86 134,-86 134,-80 140,-74 146,-74 146,-74 247,-74 247,-74 253,-74 259,-80 259,-86 259,-86 259,-115 259,-115 259,-121 253,-127 247,-127"/>
<text text-anchor="middle" x="196.5" y="-111.8" font-family="Helvetica,sans-Serif" font-size="14.00">MedInc &lt;= 2.215</text>
<text text-anchor="middle" x="196.5" y="-96.8" font-family="Helvetica,sans-Serif" font-size="14.00">samples = 2454</text>
<text text-anchor="middle" x="196.5" y="-81.8" font-family="Helvetica,sans-Serif" font-size="14.00">value = 1.618</text>
</g>
<!-- 2&#45;&gt;3 -->
<g id="edge3" class="edge">
<title>2&#45;&gt;3</title>
<path fill="none" stroke="black" d="M344.21,-162.98C320.07,-152.94 292.2,-141.34 267.21,-130.94"/>
<polygon fill="black" stroke="black" points="268.37,-127.63 257.79,-127.01 265.68,-134.09 268.37,-127.63"/>
</g>
<!-- 6 -->
<g id="node7" class="node">
<title>6</title>
<path fill="#fef9f5" stroke="black" d="M456,-127C456,-127 355,-127 355,-127 349,-127 343,-121 343,-115 343,-115 343,-86 343,-86 343,-80 349,-74 355,-74 355,-74 456,-74 456,-74 462,-74 468,-80 468,-86 468,-86 468,-115 468,-115 468,-121 462,-127 456,-127"/>
<text text-anchor="middle" x="405.5" y="-111.8" font-family="Helvetica,sans-Serif" font-size="14.00">MedInc &lt;= 2.415</text>
<text text-anchor="middle" x="405.5" y="-96.8" font-family="Helvetica,sans-Serif" font-size="14.00">samples = 3415</text>
<text text-anchor="middle" x="405.5" y="-81.8" font-family="Helvetica,sans-Serif" font-size="14.00">value = 1.161</text>
</g>
<!-- 2&#45;&gt;6 -->
<g id="edge6" class="edge">
<title>2&#45;&gt;6</title>
<path fill="none" stroke="black" d="M405.5,-162.87C405.5,-154.89 405.5,-145.93 405.5,-137.38"/>
<polygon fill="black" stroke="black" points="409,-137.25 405.5,-127.25 402,-137.25 409,-137.25"/>
</g>
<!-- 4 -->
<g id="node5" class="node">
<title>4</title>
<path fill="#fcf2ea" stroke="black" d="M107,-38C107,-38 12,-38 12,-38 6,-38 0,-32 0,-26 0,-26 0,-12 0,-12 0,-6 6,0 12,0 12,0 107,0 107,0 113,0 119,-6 119,-12 119,-12 119,-26 119,-26 119,-32 113,-38 107,-38"/>
<text text-anchor="middle" x="59.5" y="-22.8" font-family="Helvetica,sans-Serif" font-size="14.00">samples = 1298</text>
<text text-anchor="middle" x="59.5" y="-7.8" font-family="Helvetica,sans-Serif" font-size="14.00">value = 1.37</text>
</g>
<!-- 3&#45;&gt;4 -->
<g id="edge4" class="edge">
<title>3&#45;&gt;4</title>
<path fill="none" stroke="black" d="M152.4,-73.91C135.5,-64.1 116.33,-52.98 99.81,-43.39"/>
<polygon fill="black" stroke="black" points="101.34,-40.23 90.93,-38.24 97.82,-46.29 101.34,-40.23"/>
</g>
<!-- 5 -->
<g id="node6" class="node">
<title>5</title>
<path fill="#f9e1d0" stroke="black" d="M244,-38C244,-38 149,-38 149,-38 143,-38 137,-32 137,-26 137,-26 137,-12 137,-12 137,-6 143,0 149,0 149,0 244,0 244,0 250,0 256,-6 256,-12 256,-12 256,-26 256,-26 256,-32 250,-38 244,-38"/>
<text text-anchor="middle" x="196.5" y="-22.8" font-family="Helvetica,sans-Serif" font-size="14.00">samples = 1156</text>
<text text-anchor="middle" x="196.5" y="-7.8" font-family="Helvetica,sans-Serif" font-size="14.00">value = 1.896</text>
</g>
<!-- 3&#45;&gt;5 -->
<g id="edge5" class="edge">
<title>3&#45;&gt;5</title>
<path fill="none" stroke="black" d="M196.5,-73.91C196.5,-65.74 196.5,-56.65 196.5,-48.3"/>
<polygon fill="black" stroke="black" points="200,-48.24 196.5,-38.24 193,-48.24 200,-48.24"/>
</g>
<!-- 7 -->
<g id="node8" class="node">
<title>7</title>
<path fill="#ffffff" stroke="black" d="M381,-38C381,-38 286,-38 286,-38 280,-38 274,-32 274,-26 274,-26 274,-12 274,-12 274,-6 280,0 286,0 286,0 381,0 381,0 387,0 393,-6 393,-12 393,-12 393,-26 393,-26 393,-32 387,-38 381,-38"/>
<text text-anchor="middle" x="333.5" y="-22.8" font-family="Helvetica,sans-Serif" font-size="14.00">samples = 1721</text>
<text text-anchor="middle" x="333.5" y="-7.8" font-family="Helvetica,sans-Serif" font-size="14.00">value = 0.966</text>
</g>
<!-- 6&#45;&gt;7 -->
<g id="edge7" class="edge">
<title>6&#45;&gt;7</title>
<path fill="none" stroke="black" d="M382.32,-73.91C374.18,-64.92 365.04,-54.82 356.88,-45.82"/>
<polygon fill="black" stroke="black" points="359.33,-43.3 350.02,-38.24 354.14,-48 359.33,-43.3"/>
</g>
<!-- 8 -->
<g id="node9" class="node">
<title>8</title>
<path fill="#fcf2eb" stroke="black" d="M518,-38C518,-38 423,-38 423,-38 417,-38 411,-32 411,-26 411,-26 411,-12 411,-12 411,-6 417,0 423,0 423,0 518,0 518,0 524,0 530,-6 530,-12 530,-12 530,-26 530,-26 530,-32 524,-38 518,-38"/>
<text text-anchor="middle" x="470.5" y="-22.8" font-family="Helvetica,sans-Serif" font-size="14.00">samples = 1694</text>
<text text-anchor="middle" x="470.5" y="-7.8" font-family="Helvetica,sans-Serif" font-size="14.00">value = 1.36</text>
</g>
<!-- 6&#45;&gt;8 -->
<g id="edge8" class="edge">
<title>6&#45;&gt;8</title>
<path fill="none" stroke="black" d="M426.42,-73.91C433.7,-65.01 441.86,-55.03 449.17,-46.09"/>
<polygon fill="black" stroke="black" points="451.97,-48.2 455.59,-38.24 446.55,-43.77 451.97,-48.2"/>
</g>
<!-- 10 -->
<g id="node11" class="node">
<title>10</title>
<path fill="#f3c3a0" stroke="black" d="M781,-127C781,-127 668,-127 668,-127 662,-127 656,-121 656,-115 656,-115 656,-86 656,-86 656,-80 662,-74 668,-74 668,-74 781,-74 781,-74 787,-74 793,-80 793,-86 793,-86 793,-115 793,-115 793,-121 787,-127 781,-127"/>
<text text-anchor="middle" x="724.5" y="-111.8" font-family="Helvetica,sans-Serif" font-size="14.00">HouseAge &lt;= 21.5</text>
<text text-anchor="middle" x="724.5" y="-96.8" font-family="Helvetica,sans-Serif" font-size="14.00">samples = 1372</text>
<text text-anchor="middle" x="724.5" y="-81.8" font-family="Helvetica,sans-Serif" font-size="14.00">value = 2.828</text>
</g>
<!-- 9&#45;&gt;10 -->
<g id="edge10" class="edge">
<title>9&#45;&gt;10</title>
<path fill="none" stroke="black" d="M776.7,-162.87C769.31,-154.18 760.95,-144.35 753.11,-135.14"/>
<polygon fill="black" stroke="black" points="755.55,-132.6 746.4,-127.25 750.22,-137.13 755.55,-132.6"/>
</g>
<!-- 13 -->
<g id="node14" class="node">
<title>13</title>
<path fill="#f9e1d0" stroke="black" d="M924,-127C924,-127 823,-127 823,-127 817,-127 811,-121 811,-115 811,-115 811,-86 811,-86 811,-80 817,-74 823,-74 823,-74 924,-74 924,-74 930,-74 936,-80 936,-86 936,-86 936,-115 936,-115 936,-121 930,-127 924,-127"/>
<text text-anchor="middle" x="873.5" y="-111.8" font-family="Helvetica,sans-Serif" font-size="14.00">MedInc &lt;= 4.071</text>
<text text-anchor="middle" x="873.5" y="-96.8" font-family="Helvetica,sans-Serif" font-size="14.00">samples = 4922</text>
<text text-anchor="middle" x="873.5" y="-81.8" font-family="Helvetica,sans-Serif" font-size="14.00">value = 1.889</text>
</g>
<!-- 9&#45;&gt;13 -->
<g id="edge13" class="edge">
<title>9&#45;&gt;13</title>
<path fill="none" stroke="black" d="M820.6,-162.87C828.16,-154.1 836.73,-144.15 844.74,-134.86"/>
<polygon fill="black" stroke="black" points="847.42,-137.11 851.3,-127.25 842.12,-132.54 847.42,-137.11"/>
</g>
<!-- 11 -->
<g id="node12" class="node">
<title>11</title>
<path fill="#f7d7c0" stroke="black" d="M647,-38C647,-38 560,-38 560,-38 554,-38 548,-32 548,-26 548,-26 548,-12 548,-12 548,-6 554,0 560,0 560,0 647,0 647,0 653,0 659,-6 659,-12 659,-12 659,-26 659,-26 659,-32 653,-38 647,-38"/>
<text text-anchor="middle" x="603.5" y="-22.8" font-family="Helvetica,sans-Serif" font-size="14.00">samples = 454</text>
<text text-anchor="middle" x="603.5" y="-7.8" font-family="Helvetica,sans-Serif" font-size="14.00">value = 2.202</text>
</g>
<!-- 10&#45;&gt;11 -->
<g id="edge11" class="edge">
<title>10&#45;&gt;11</title>
<path fill="none" stroke="black" d="M685.55,-73.91C670.9,-64.29 654.32,-53.39 639.91,-43.92"/>
<polygon fill="black" stroke="black" points="641.54,-40.8 631.26,-38.24 637.7,-46.66 641.54,-40.8"/>
</g>
<!-- 12 -->
<g id="node13" class="node">
<title>12</title>
<path fill="#f0b990" stroke="black" d="M776,-38C776,-38 689,-38 689,-38 683,-38 677,-32 677,-26 677,-26 677,-12 677,-12 677,-6 683,0 689,0 689,0 776,0 776,0 782,0 788,-6 788,-12 788,-12 788,-26 788,-26 788,-32 782,-38 776,-38"/>
<text text-anchor="middle" x="732.5" y="-22.8" font-family="Helvetica,sans-Serif" font-size="14.00">samples = 918</text>
<text text-anchor="middle" x="732.5" y="-7.8" font-family="Helvetica,sans-Serif" font-size="14.00">value = 3.138</text>
</g>
<!-- 10&#45;&gt;12 -->
<g id="edge12" class="edge">
<title>10&#45;&gt;12</title>
<path fill="none" stroke="black" d="M727.08,-73.91C727.9,-65.74 728.81,-56.65 729.65,-48.3"/>
<polygon fill="black" stroke="black" points="733.15,-48.54 730.66,-38.24 726.18,-47.84 733.15,-48.54"/>
</g>
<!-- 14 -->
<g id="node15" class="node">
<title>14</title>
<path fill="#fae6d8" stroke="black" d="M913,-38C913,-38 818,-38 818,-38 812,-38 806,-32 806,-26 806,-26 806,-12 806,-12 806,-6 812,0 818,0 818,0 913,0 913,0 919,0 925,-6 925,-12 925,-12 925,-26 925,-26 925,-32 919,-38 913,-38"/>
<text text-anchor="middle" x="865.5" y="-22.8" font-family="Helvetica,sans-Serif" font-size="14.00">samples = 2889</text>
<text text-anchor="middle" x="865.5" y="-7.8" font-family="Helvetica,sans-Serif" font-size="14.00">value = 1.728</text>
</g>
<!-- 13&#45;&gt;14 -->
<g id="edge14" class="edge">
<title>13&#45;&gt;14</title>
<path fill="none" stroke="black" d="M870.92,-73.91C870.1,-65.74 869.19,-56.65 868.35,-48.3"/>
<polygon fill="black" stroke="black" points="871.82,-47.84 867.34,-38.24 864.85,-48.54 871.82,-47.84"/>
</g>
<!-- 15 -->
<g id="node16" class="node">
<title>15</title>
<path fill="#f7dac4" stroke="black" d="M1050,-38C1050,-38 955,-38 955,-38 949,-38 943,-32 943,-26 943,-26 943,-12 943,-12 943,-6 949,0 955,0 955,0 1050,0 1050,0 1056,0 1062,-6 1062,-12 1062,-12 1062,-26 1062,-26 1062,-32 1056,-38 1050,-38"/>
<text text-anchor="middle" x="1002.5" y="-22.8" font-family="Helvetica,sans-Serif" font-size="14.00">samples = 2033</text>
<text text-anchor="middle" x="1002.5" y="-7.8" font-family="Helvetica,sans-Serif" font-size="14.00">value = 2.116</text>
</g>
<!-- 13&#45;&gt;15 -->
<g id="edge15" class="edge">
<title>13&#45;&gt;15</title>
<path fill="none" stroke="black" d="M915.03,-73.91C930.79,-64.19 948.66,-53.18 964.12,-43.66"/>
<polygon fill="black" stroke="black" points="966.23,-46.47 972.9,-38.24 962.56,-40.51 966.23,-46.47"/>
</g>
<!-- 17 -->
<g id="node18" class="node">
<title>17</title>
<path fill="#f2bf9b" stroke="black" d="M1388.5,-216C1388.5,-216 1268.5,-216 1268.5,-216 1262.5,-216 1256.5,-210 1256.5,-204 1256.5,-204 1256.5,-175 1256.5,-175 1256.5,-169 1262.5,-163 1268.5,-163 1268.5,-163 1388.5,-163 1388.5,-163 1394.5,-163 1400.5,-169 1400.5,-175 1400.5,-175 1400.5,-204 1400.5,-204 1400.5,-210 1394.5,-216 1388.5,-216"/>
<text text-anchor="middle" x="1328.5" y="-200.8" font-family="Helvetica,sans-Serif" font-size="14.00">AveOccup &lt;= 2.739</text>
<text text-anchor="middle" x="1328.5" y="-185.8" font-family="Helvetica,sans-Serif" font-size="14.00">samples = 2317</text>
<text text-anchor="middle" x="1328.5" y="-170.8" font-family="Helvetica,sans-Serif" font-size="14.00">value = 2.924</text>
</g>
<!-- 16&#45;&gt;17 -->
<g id="edge17" class="edge">
<title>16&#45;&gt;17</title>
<path fill="none" stroke="black" d="M1328.5,-251.87C1328.5,-243.89 1328.5,-234.93 1328.5,-226.38"/>
<polygon fill="black" stroke="black" points="1332,-226.25 1328.5,-216.25 1325,-226.25 1332,-226.25"/>
</g>
<!-- 24 -->
<g id="node25" class="node">
<title>24</title>
<path fill="#e99559" stroke="black" d="M1756,-216C1756,-216 1655,-216 1655,-216 1649,-216 1643,-210 1643,-204 1643,-204 1643,-175 1643,-175 1643,-169 1649,-163 1655,-163 1655,-163 1756,-163 1756,-163 1762,-163 1768,-169 1768,-175 1768,-175 1768,-204 1768,-204 1768,-210 1762,-216 1756,-216"/>
<text text-anchor="middle" x="1705.5" y="-200.8" font-family="Helvetica,sans-Serif" font-size="14.00">MedInc &lt;= 7.815</text>
<text text-anchor="middle" x="1705.5" y="-185.8" font-family="Helvetica,sans-Serif" font-size="14.00">samples = 1000</text>
<text text-anchor="middle" x="1705.5" y="-170.8" font-family="Helvetica,sans-Serif" font-size="14.00">value = 4.224</text>
</g>
<!-- 16&#45;&gt;24 -->
<g id="edge24" class="edge">
<title>16&#45;&gt;24</title>
<path fill="none" stroke="black" d="M1388.24,-263.71C1454.67,-248.38 1561.96,-223.62 1633.11,-207.2"/>
<polygon fill="black" stroke="black" points="1633.95,-210.6 1642.9,-204.95 1632.37,-203.78 1633.95,-210.6"/>
</g>
<!-- 18 -->
<g id="node19" class="node">
<title>18</title>
<path fill="#efb082" stroke="black" d="M1311,-127C1311,-127 1198,-127 1198,-127 1192,-127 1186,-121 1186,-115 1186,-115 1186,-86 1186,-86 1186,-80 1192,-74 1198,-74 1198,-74 1311,-74 1311,-74 1317,-74 1323,-80 1323,-86 1323,-86 1323,-115 1323,-115 1323,-121 1317,-127 1311,-127"/>
<text text-anchor="middle" x="1254.5" y="-111.8" font-family="Helvetica,sans-Serif" font-size="14.00">HouseAge &lt;= 19.5</text>
<text text-anchor="middle" x="1254.5" y="-96.8" font-family="Helvetica,sans-Serif" font-size="14.00">samples = 958</text>
<text text-anchor="middle" x="1254.5" y="-81.8" font-family="Helvetica,sans-Serif" font-size="14.00">value = 3.416</text>
</g>
<!-- 17&#45;&gt;18 -->
<g id="edge18" class="edge">
<title>17&#45;&gt;18</title>
<path fill="none" stroke="black" d="M1306.7,-162.87C1299.31,-154.18 1290.95,-144.35 1283.11,-135.14"/>
<polygon fill="black" stroke="black" points="1285.55,-132.6 1276.4,-127.25 1280.22,-137.13 1285.55,-132.6"/>
</g>
<!-- 21 -->
<g id="node22" class="node">
<title>21</title>
<path fill="#f4cbad" stroke="black" d="M1454,-127C1454,-127 1353,-127 1353,-127 1347,-127 1341,-121 1341,-115 1341,-115 1341,-86 1341,-86 1341,-80 1347,-74 1353,-74 1353,-74 1454,-74 1454,-74 1460,-74 1466,-80 1466,-86 1466,-86 1466,-115 1466,-115 1466,-121 1460,-127 1454,-127"/>
<text text-anchor="middle" x="1403.5" y="-111.8" font-family="Helvetica,sans-Serif" font-size="14.00">MedInc &lt;= 5.689</text>
<text text-anchor="middle" x="1403.5" y="-96.8" font-family="Helvetica,sans-Serif" font-size="14.00">samples = 1359</text>
<text text-anchor="middle" x="1403.5" y="-81.8" font-family="Helvetica,sans-Serif" font-size="14.00">value = 2.578</text>
</g>
<!-- 17&#45;&gt;21 -->
<g id="edge21" class="edge">
<title>17&#45;&gt;21</title>
<path fill="none" stroke="black" d="M1350.6,-162.87C1358.16,-154.1 1366.73,-144.15 1374.74,-134.86"/>
<polygon fill="black" stroke="black" points="1377.42,-137.11 1381.3,-127.25 1372.12,-132.54 1377.42,-137.11"/>
</g>
<!-- 19 -->
<g id="node20" class="node">
<title>19</title>
<path fill="#f2bf9a" stroke="black" d="M1179,-38C1179,-38 1092,-38 1092,-38 1086,-38 1080,-32 1080,-26 1080,-26 1080,-12 1080,-12 1080,-6 1086,0 1092,0 1092,0 1179,0 1179,0 1185,0 1191,-6 1191,-12 1191,-12 1191,-26 1191,-26 1191,-32 1185,-38 1179,-38"/>
<text text-anchor="middle" x="1135.5" y="-22.8" font-family="Helvetica,sans-Serif" font-size="14.00">samples = 262</text>
<text text-anchor="middle" x="1135.5" y="-7.8" font-family="Helvetica,sans-Serif" font-size="14.00">value = 2.939</text>
</g>
<!-- 18&#45;&gt;19 -->
<g id="edge19" class="edge">
<title>18&#45;&gt;19</title>
<path fill="none" stroke="black" d="M1216.19,-73.91C1201.79,-64.29 1185.48,-53.39 1171.31,-43.92"/>
<polygon fill="black" stroke="black" points="1173.06,-40.88 1162.8,-38.24 1169.17,-46.7 1173.06,-40.88"/>
</g>
<!-- 20 -->
<g id="node21" class="node">
<title>20</title>
<path fill="#edaa79" stroke="black" d="M1308,-38C1308,-38 1221,-38 1221,-38 1215,-38 1209,-32 1209,-26 1209,-26 1209,-12 1209,-12 1209,-6 1215,0 1221,0 1221,0 1308,0 1308,0 1314,0 1320,-6 1320,-12 1320,-12 1320,-26 1320,-26 1320,-32 1314,-38 1308,-38"/>
<text text-anchor="middle" x="1264.5" y="-22.8" font-family="Helvetica,sans-Serif" font-size="14.00">samples = 696</text>
<text text-anchor="middle" x="1264.5" y="-7.8" font-family="Helvetica,sans-Serif" font-size="14.00">value = 3.596</text>
</g>
<!-- 18&#45;&gt;20 -->
<g id="edge20" class="edge">
<title>18&#45;&gt;20</title>
<path fill="none" stroke="black" d="M1257.72,-73.91C1258.75,-65.74 1259.89,-56.65 1260.94,-48.3"/>
<polygon fill="black" stroke="black" points="1264.43,-48.6 1262.21,-38.24 1257.49,-47.72 1264.43,-48.6"/>
</g>
<!-- 22 -->
<g id="node23" class="node">
<title>22</title>
<path fill="#f6d4bb" stroke="black" d="M1437,-38C1437,-38 1350,-38 1350,-38 1344,-38 1338,-32 1338,-26 1338,-26 1338,-12 1338,-12 1338,-6 1344,0 1350,0 1350,0 1437,0 1437,0 1443,0 1449,-6 1449,-12 1449,-12 1449,-26 1449,-26 1449,-32 1443,-38 1437,-38"/>
<text text-anchor="middle" x="1393.5" y="-22.8" font-family="Helvetica,sans-Serif" font-size="14.00">samples = 691</text>
<text text-anchor="middle" x="1393.5" y="-7.8" font-family="Helvetica,sans-Serif" font-size="14.00">value = 2.305</text>
</g>
<!-- 21&#45;&gt;22 -->
<g id="edge22" class="edge">
<title>21&#45;&gt;22</title>
<path fill="none" stroke="black" d="M1400.28,-73.91C1399.25,-65.74 1398.11,-56.65 1397.06,-48.3"/>
<polygon fill="black" stroke="black" points="1400.51,-47.72 1395.79,-38.24 1393.57,-48.6 1400.51,-47.72"/>
</g>
<!-- 23 -->
<g id="node24" class="node">
<title>23</title>
<path fill="#f2c29e" stroke="black" d="M1566,-38C1566,-38 1479,-38 1479,-38 1473,-38 1467,-32 1467,-26 1467,-26 1467,-12 1467,-12 1467,-6 1473,0 1479,0 1479,0 1566,0 1566,0 1572,0 1578,-6 1578,-12 1578,-12 1578,-26 1578,-26 1578,-32 1572,-38 1566,-38"/>
<text text-anchor="middle" x="1522.5" y="-22.8" font-family="Helvetica,sans-Serif" font-size="14.00">samples = 668</text>
<text text-anchor="middle" x="1522.5" y="-7.8" font-family="Helvetica,sans-Serif" font-size="14.00">value = 2.86</text>
</g>
<!-- 21&#45;&gt;23 -->
<g id="edge23" class="edge">
<title>21&#45;&gt;23</title>
<path fill="none" stroke="black" d="M1441.81,-73.91C1456.21,-64.29 1472.52,-53.39 1486.69,-43.92"/>
<polygon fill="black" stroke="black" points="1488.83,-46.7 1495.2,-38.24 1484.94,-40.88 1488.83,-46.7"/>
</g>
<!-- 25 -->
<g id="node26" class="node">
<title>25</title>
<path fill="#eda674" stroke="black" d="M1762,-127C1762,-127 1649,-127 1649,-127 1643,-127 1637,-121 1637,-115 1637,-115 1637,-86 1637,-86 1637,-80 1643,-74 1649,-74 1649,-74 1762,-74 1762,-74 1768,-74 1774,-80 1774,-86 1774,-86 1774,-115 1774,-115 1774,-121 1768,-127 1762,-127"/>
<text text-anchor="middle" x="1705.5" y="-111.8" font-family="Helvetica,sans-Serif" font-size="14.00">HouseAge &lt;= 26.5</text>
<text text-anchor="middle" x="1705.5" y="-96.8" font-family="Helvetica,sans-Serif" font-size="14.00">samples = 423</text>
<text text-anchor="middle" x="1705.5" y="-81.8" font-family="Helvetica,sans-Serif" font-size="14.00">value = 3.702</text>
</g>
<!-- 24&#45;&gt;25 -->
<g id="edge25" class="edge">
<title>24&#45;&gt;25</title>
<path fill="none" stroke="black" d="M1705.5,-162.87C1705.5,-154.89 1705.5,-145.93 1705.5,-137.38"/>
<polygon fill="black" stroke="black" points="1709,-137.25 1705.5,-127.25 1702,-137.25 1709,-137.25"/>
</g>
<!-- 28 -->
<g id="node29" class="node">
<title>28</title>
<path fill="#e78946" stroke="black" d="M1960,-127C1960,-127 1859,-127 1859,-127 1853,-127 1847,-121 1847,-115 1847,-115 1847,-86 1847,-86 1847,-80 1853,-74 1859,-74 1859,-74 1960,-74 1960,-74 1966,-74 1972,-80 1972,-86 1972,-86 1972,-115 1972,-115 1972,-121 1966,-127 1960,-127"/>
<text text-anchor="middle" x="1909.5" y="-111.8" font-family="Helvetica,sans-Serif" font-size="14.00">MedInc &lt;= 8.865</text>
<text text-anchor="middle" x="1909.5" y="-96.8" font-family="Helvetica,sans-Serif" font-size="14.00">samples = 577</text>
<text text-anchor="middle" x="1909.5" y="-81.8" font-family="Helvetica,sans-Serif" font-size="14.00">value = 4.606</text>
</g>
<!-- 24&#45;&gt;28 -->
<g id="edge28" class="edge">
<title>24&#45;&gt;28</title>
<path fill="none" stroke="black" d="M1765.33,-162.98C1788.78,-152.98 1815.85,-141.44 1840.16,-131.07"/>
<polygon fill="black" stroke="black" points="1841.85,-134.16 1849.67,-127.01 1839.1,-127.72 1841.85,-134.16"/>
</g>
<!-- 26 -->
<g id="node27" class="node">
<title>26</title>
<path fill="#efb083" stroke="black" d="M1695,-38C1695,-38 1608,-38 1608,-38 1602,-38 1596,-32 1596,-26 1596,-26 1596,-12 1596,-12 1596,-6 1602,0 1608,0 1608,0 1695,0 1695,0 1701,0 1707,-6 1707,-12 1707,-12 1707,-26 1707,-26 1707,-32 1701,-38 1695,-38"/>
<text text-anchor="middle" x="1651.5" y="-22.8" font-family="Helvetica,sans-Serif" font-size="14.00">samples = 257</text>
<text text-anchor="middle" x="1651.5" y="-7.8" font-family="Helvetica,sans-Serif" font-size="14.00">value = 3.39</text>
</g>
<!-- 25&#45;&gt;26 -->
<g id="edge26" class="edge">
<title>25&#45;&gt;26</title>
<path fill="none" stroke="black" d="M1688.12,-73.91C1682.2,-65.19 1675.57,-55.43 1669.59,-46.64"/>
<polygon fill="black" stroke="black" points="1672.4,-44.54 1663.89,-38.24 1666.61,-48.48 1672.4,-44.54"/>
</g>
<!-- 27 -->
<g id="node28" class="node">
<title>27</title>
<path fill="#e9975b" stroke="black" d="M1824,-38C1824,-38 1737,-38 1737,-38 1731,-38 1725,-32 1725,-26 1725,-26 1725,-12 1725,-12 1725,-6 1731,0 1737,0 1737,0 1824,0 1824,0 1830,0 1836,-6 1836,-12 1836,-12 1836,-26 1836,-26 1836,-32 1830,-38 1824,-38"/>
<text text-anchor="middle" x="1780.5" y="-22.8" font-family="Helvetica,sans-Serif" font-size="14.00">samples = 166</text>
<text text-anchor="middle" x="1780.5" y="-7.8" font-family="Helvetica,sans-Serif" font-size="14.00">value = 4.185</text>
</g>
<!-- 25&#45;&gt;27 -->
<g id="edge27" class="edge">
<title>25&#45;&gt;27</title>
<path fill="none" stroke="black" d="M1729.64,-73.91C1738.21,-64.83 1747.84,-54.62 1756.4,-45.54"/>
<polygon fill="black" stroke="black" points="1758.98,-47.91 1763.29,-38.24 1753.89,-43.11 1758.98,-47.91"/>
</g>
<!-- 29 -->
<g id="node30" class="node">
<title>29</title>
<path fill="#e99254" stroke="black" d="M1953,-38C1953,-38 1866,-38 1866,-38 1860,-38 1854,-32 1854,-26 1854,-26 1854,-12 1854,-12 1854,-6 1860,0 1866,0 1866,0 1953,0 1953,0 1959,0 1965,-6 1965,-12 1965,-12 1965,-26 1965,-26 1965,-32 1959,-38 1953,-38"/>
<text text-anchor="middle" x="1909.5" y="-22.8" font-family="Helvetica,sans-Serif" font-size="14.00">samples = 263</text>
<text text-anchor="middle" x="1909.5" y="-7.8" font-family="Helvetica,sans-Serif" font-size="14.00">value = 4.313</text>
</g>
<!-- 28&#45;&gt;29 -->
<g id="edge29" class="edge">
<title>28&#45;&gt;29</title>
<path fill="none" stroke="black" d="M1909.5,-73.91C1909.5,-65.74 1909.5,-56.65 1909.5,-48.3"/>
<polygon fill="black" stroke="black" points="1913,-48.24 1909.5,-38.24 1906,-48.24 1913,-48.24"/>
</g>
<!-- 30 -->
<g id="node31" class="node">
<title>30</title>
<path fill="#e58139" stroke="black" d="M2082,-38C2082,-38 1995,-38 1995,-38 1989,-38 1983,-32 1983,-26 1983,-26 1983,-12 1983,-12 1983,-6 1989,0 1995,0 1995,0 2082,0 2082,0 2088,0 2094,-6 2094,-12 2094,-12 2094,-26 2094,-26 2094,-32 2088,-38 2082,-38"/>
<text text-anchor="middle" x="2038.5" y="-22.8" font-family="Helvetica,sans-Serif" font-size="14.00">samples = 314</text>
<text text-anchor="middle" x="2038.5" y="-7.8" font-family="Helvetica,sans-Serif" font-size="14.00">value = 4.852</text>
</g>
<!-- 28&#45;&gt;30 -->
<g id="edge30" class="edge">
<title>28&#45;&gt;30</title>
<path fill="none" stroke="black" d="M1951.03,-73.91C1966.79,-64.19 1984.66,-53.18 2000.12,-43.66"/>
<polygon fill="black" stroke="black" points="2002.23,-46.47 2008.9,-38.24 1998.56,-40.51 2002.23,-46.47"/>
</g>
</g>
</svg>
